{"title":"Naruto Shippuuden - 345 [720p] [ENG-SUBBED] [GWC].mkv","uid":9485769,"size":89275428,"categoryP":"video","categoryS":"tv_shows","magnet":"?xt=urn:btih:3a6a864750077f91c8ab248e2a3c85adf3b324ab&amp;dn=Naruto+Shippuuden+-+345+%5B720p%5D+%5BENG-SUBBED%5D+%5BGWC%5D.mkv&amp;tr=udp%3A%2F%2Ftracker.openbittorrent.com%3A80&amp;tr=udp%3A%2F%2Fopen.demonii.com%3A1337&amp;tr=udp%3A%2F%2Ftracker.coppersurfer.tk%3A6969&amp;tr=udp%3A%2F%2Fexodus.desync.com%3A6969","seeders":1,"leechers":0,"uploader":"canc232","files":1,"time":1389885175,"description":"Naruto Shippuuden - 345 [720p] [ENG-SUBBED] [GWC] \n\n\n\nTHUMBNAIL IMAGE : &lt;a href=&quot;\nhttp://img541.imageshack.us/img541/2219/ghsz.jpg&quot; rel=&quot;nofollow&quot; target=&quot;_NEW&quot;&gt;\nhttp://img541.imageshack.us/img541/2219/ghsz.jpg&lt;/a&gt;\n\n\n\nMEDIA INFO :\n\nGeneral \nFormat : Matroska \nFile size : 85.1 MiB \nDuration : 21mn 42s \nOverall bit rate : 548 Kbps \nWriting application : mkvmerge v6.6.0 ('The Edge Of The In Between')\n\nVideo \nFormat : AVC \nFormat profile : &lt;a class=&quot;__cf_email__&quot; href=&quot;/cdn-cgi/l/email-protection&quot; data-cfemail=&quot;327a5b555a727e061c03&quot;&gt;[email&amp;#160;protected]&lt;/a&gt;&lt;script cf-hash='f9e31' type=&quot;text/javascript&quot;&gt;\n/* &lt;![CDATA[ */!function(){try{var t=&quot;currentScript&quot;in document?document.currentScript:function(){for(var t=document.getElementsByTagName(&quot;script&quot;),e=t.length;e--;)if(t[e].getAttribute(&quot;cf-hash&quot;))return t[e]}();if(t&amp;&amp;t.previousSibling){var e,r,n,i,c=t.previousSibling,a=c.getAttribute(&quot;data-cfemail&quot;);if(a){for(e=&quot;&quot;,r=parseInt(a.substr(0,2),16),n=2;a.length-n;n+=2)i=parseInt(a.substr(n,2),16)^r,e+=String.fromCharCode(i);e=document.createTextNode(e),c.parentNode.replaceChild(e,c)}}}catch(u){}}();/* ]]&gt; */&lt;/script&gt; \nFormat settings, CABAC : Yes \nFormat settings, ReFrames : 11 frames\nDuration : 21mn 42s \nBit rate : 481 Kbps \nNominal bit rate : 510 Kbps \nWidth : 1 280 pixels \nHeight : 720 pixels \nDisplay aspect ratio : 16:9 \nFrame rate mode : Constant \nFrame rate : 23.976 fps \nStream size : 74.7 MiB (88%) \nTitle : Naruto Shippuuden - 345 [720p] [ENG-SUBBED] [GWC] \nWriting library : x264 core\nDefault : Yes \nForced : No \n\nAudio \nFormat : Vorbis \nDuration : 21mn 42s \nBit rate mode : Variable \nBit rate : 56.0 Kbps \nChannel(s) : 2 channels \nSampling rate : 44.1 KHz \nCompression mode : Lossy \nStream size : 8.70 MiB (10%) \nWriting library : aoTuV 20110424\n\nText \nFormat : UTF-8 \nCodec ID/Info : UTF-8 Plain Text \nTitle : [GWC] \nLanguage : English","torrent":{"xt":"urn:btih:3a6a864750077f91c8ab248e2a3c85adf3b324ab","amp;dn":"Naruto+Shippuuden+-+345+%5B720p%5D+%5BENG-SUBBED%5D+%5BGWC%5D.mkv","amp;tr":["udp%3A%2F%2Ftracker.openbittorrent.com%3A80","udp%3A%2F%2Fopen.demonii.com%3A1337","udp%3A%2F%2Ftracker.coppersurfer.tk%3A6969","udp%3A%2F%2Fexodus.desync.com%3A6969"],"infoHash":"3a6a864750077f91c8ab248e2a3c85adf3b324ab","infoHashBuffer":{"type":"Buffer","data":[58,106,134,71,80,7,127,145,200,171,36,142,42,60,133,173,243,179,36,171]},"announce":[],"urlList":[]}}